<mxfile host="app.diagrams.net" agent="Mozilla/5.0 (Windows NT 10.0; Win64; x64) AppleWebKit/537.36 (KHTML, like Gecko) Chrome/127.0.0.0 Safari/537.36" version="24.7.6">
  <diagram name="PÃ¡gina-1" id="7cLE5UKv-Cjkow1QqCdU">
    <mxGraphModel dx="1032" dy="493" grid="1" gridSize="10" guides="1" tooltips="1" connect="1" arrows="1" fold="1" page="1" pageScale="1" pageWidth="827" pageHeight="1169" math="0" shadow="0">
      <root>
        <mxCell id="0" />
        <mxCell id="1" parent="0" />
        <mxCell id="l4kzQjsdJL9jquP_An3h-11" value="" style="whiteSpace=wrap;html=1;aspect=fixed;" vertex="1" parent="1">
          <mxGeometry x="520" y="370" width="340" height="340" as="geometry" />
        </mxCell>
        <mxCell id="l4kzQjsdJL9jquP_An3h-5" value="frontend" style="whiteSpace=wrap;html=1;aspect=fixed;" vertex="1" parent="1">
          <mxGeometry x="80" y="350" width="370" height="370" as="geometry" />
        </mxCell>
        <mxCell id="l4kzQjsdJL9jquP_An3h-1" value="backend" style="whiteSpace=wrap;html=1;aspect=fixed;" vertex="1" parent="1">
          <mxGeometry x="650" y="390" width="80" height="80" as="geometry" />
        </mxCell>
        <mxCell id="l4kzQjsdJL9jquP_An3h-2" value="site responsivo" style="whiteSpace=wrap;html=1;aspect=fixed;" vertex="1" parent="1">
          <mxGeometry x="100" y="370" width="80" height="80" as="geometry" />
        </mxCell>
        <mxCell id="l4kzQjsdJL9jquP_An3h-3" value="app mobile" style="whiteSpace=wrap;html=1;aspect=fixed;" vertex="1" parent="1">
          <mxGeometry x="100" y="600" width="80" height="80" as="geometry" />
        </mxCell>
        <mxCell id="l4kzQjsdJL9jquP_An3h-6" value="Admin" style="whiteSpace=wrap;html=1;aspect=fixed;" vertex="1" parent="1">
          <mxGeometry x="310" y="370" width="80" height="80" as="geometry" />
        </mxCell>
        <mxCell id="l4kzQjsdJL9jquP_An3h-7" value="mapa interativo" style="whiteSpace=wrap;html=1;aspect=fixed;" vertex="1" parent="1">
          <mxGeometry x="280" y="585" width="80" height="80" as="geometry" />
        </mxCell>
        <mxCell id="l4kzQjsdJL9jquP_An3h-8" value="database" style="shape=cylinder3;whiteSpace=wrap;html=1;boundedLbl=1;backgroundOutline=1;size=15;" vertex="1" parent="1">
          <mxGeometry x="660" y="600" width="60" height="80" as="geometry" />
        </mxCell>
        <mxCell id="l4kzQjsdJL9jquP_An3h-10" value="" style="endArrow=classic;startArrow=classic;html=1;rounded=0;entryX=0.5;entryY=1;entryDx=0;entryDy=0;" edge="1" parent="1" source="l4kzQjsdJL9jquP_An3h-8" target="l4kzQjsdJL9jquP_An3h-1">
          <mxGeometry width="50" height="50" relative="1" as="geometry">
            <mxPoint x="390" y="620" as="sourcePoint" />
            <mxPoint x="440" y="570" as="targetPoint" />
          </mxGeometry>
        </mxCell>
        <mxCell id="l4kzQjsdJL9jquP_An3h-12" value="" style="endArrow=classic;startArrow=classic;html=1;rounded=0;entryX=0.001;entryY=0.59;entryDx=0;entryDy=0;entryPerimeter=0;exitX=0.989;exitY=0.608;exitDx=0;exitDy=0;exitPerimeter=0;" edge="1" parent="1" source="l4kzQjsdJL9jquP_An3h-5" target="l4kzQjsdJL9jquP_An3h-11">
          <mxGeometry width="50" height="50" relative="1" as="geometry">
            <mxPoint x="390" y="620" as="sourcePoint" />
            <mxPoint x="440" y="570" as="targetPoint" />
          </mxGeometry>
        </mxCell>
      </root>
    </mxGraphModel>
  </diagram>
</mxfile>
